<svg width="26" height="39" viewBox="0 0 26 39" fill="none" xmlns="http://www.w3.org/2000/svg">
<g id="tabler:bed-filled" clip-path="url(#clip0_396_639)">
<g id="Group">
<path id="Vector" d="M3.53171 10C3.78704 10.0001 4.03348 10.144 4.22429 10.4046C4.4151 10.6651 4.537 11.0242 4.56687 11.4136L4.57417 11.6009V21.2062H10.8289V13.2018C10.8289 12.8096 10.9227 12.4312 11.0923 12.1382C11.262 11.8452 11.4958 11.658 11.7494 11.6121L11.8714 11.6009H20.211C21.0087 11.6008 21.7762 12.0689 22.3566 12.9093C22.937 13.7496 23.2863 14.8989 23.3331 16.1218L23.3384 16.4035V29.2105C23.3381 29.6186 23.2363 30.011 23.0539 30.3077C22.8715 30.6044 22.6222 30.783 22.357 30.8069C22.0917 30.8308 21.8306 30.6983 21.6268 30.4364C21.4231 30.1745 21.2921 29.803 21.2607 29.3979L21.2534 29.2105V24.4079H4.57417V29.2105C4.57387 29.6186 4.47213 30.011 4.28974 30.3077C4.10734 30.6044 3.85805 30.783 3.59281 30.8069C3.32756 30.8308 3.06638 30.6983 2.86263 30.4364C2.65888 30.1745 2.52794 29.803 2.49655 29.3979L2.48926 29.2105V11.6009C2.48926 11.1763 2.59909 10.7691 2.79459 10.4689C2.99008 10.1687 3.25524 10 3.53171 10Z" fill="#EAC91A"/>
<path id="Vector_2" d="M7.70112 13.2017C8.10679 13.2019 8.5036 13.3838 8.84294 13.7252C9.18228 14.0665 9.44939 14.5525 9.61155 15.1236C9.77371 15.6946 9.82387 16.3259 9.75588 16.94C9.68789 17.5542 9.5047 18.1246 9.22878 18.5812C8.95285 19.0379 8.59616 19.361 8.20243 19.511C7.80869 19.661 7.39502 19.6313 7.0121 19.4256C6.62918 19.22 6.29366 18.8472 6.04664 18.353C5.79962 17.8589 5.65185 17.2648 5.62142 16.6435L5.61621 16.4034L5.62142 16.1633C5.66087 15.3578 5.89712 14.605 6.28281 14.0557C6.6685 13.5065 7.17512 13.2014 7.70112 13.2017Z" fill="#EAC91A"/>
</g>
</g>
<defs>
<clipPath id="clip0_396_639">
<rect width="25.0189" height="38.4211" fill="white" transform="translate(0.404297 0.394531)"/>
</clipPath>
</defs>
</svg>
