<svg width="100" height="100" viewBox="0 0 163 145" fill="none" xmlns="http://www.w3.org/2000/svg">
<g id="Logo">
<path id="Star 2" d="M134.059 32.4829L137.255 42.974H147.596L139.23 49.4578L142.425 59.9488L134.059 53.465L125.693 59.9488L128.889 49.4578L120.523 42.974H130.864L134.059 32.4829Z" fill="#EAC91A"/>
<path id="Star 3" d="M155.244 25.4219L156.805 30.0999H161.855L157.769 32.9911L159.33 37.6691L155.244 34.7779L151.158 37.6691L152.719 32.9911L148.633 30.0999H153.683L155.244 25.4219Z" fill="#AC4307"/>
<path id="Subtract" fill-rule="evenodd" clip-rule="evenodd" d="M124.714 130.024C69.0814 135.3 22.7365 118.468 19.6911 91.109C16.6454 63.7472 58.0141 35.8041 113.266 27.0392C110.95 27.2589 108.618 27.5168 106.273 27.8139C47.5799 35.2479 2.57157 64.3768 5.74377 92.8751C8.91597 121.373 59.0674 138.449 117.76 131.015C120.101 130.719 122.42 130.388 124.714 130.024Z" fill="#EAC91A"/>
<path id="Star 1" d="M97.3123 0L103.406 18.7863H123.126L107.172 30.3969L113.266 49.1832L97.3123 37.5726L81.3584 49.1832L87.4522 30.3969L71.4984 18.7863H91.2184L97.3123 0Z" fill="#408695"/>
</g>
</svg>
